<svg xmlns="http://www.w3.org/2000/svg" viewBox="0 0 434.147 434.147"><path d="M27.336 14.372l28.177 360.474a13.333 13.333 0 0 0 9.263 11.67l148.268 47.008c2.622.831 5.437.831 8.059 0l148.268-47.008a13.333 13.333 0 0 0 9.263-11.67l28.177-360.474C407.417 6.622 401.292 0 393.519 0H40.629c-7.773 0-13.898 6.622-13.293 14.372zm294.34 122.88H274.1l-9.198-42.31-90.07 1.84-3.656 75.02 148.344 1.839-.351 149.372-102.096 32.369-102.096-32.369-5.95-76.116h53.588v37.336l55.89 15 55.556-15 4.31-59.503-167.398-3.68 14.397-169.225h188.924z" fill="#ffc10e"/></svg>