<svg xmlns="http://www.w3.org/2000/svg" viewBox="0 0 512 512"><style>.a{fill:#FFF;}.b{fill:#D1D1D1;}.c{fill:#DADDE0;}</style><circle cx="256" cy="256" r="256" fill="#7AA5DA"/><path d="M511.9 250.1L398.3 136.6l-185.1 225.6 133.3 133.3C443.2 459 512 365.5 512 256 512 254 512 252 511.9 250.1z" fill="#5786B5"/><path d="M383.7 133.5c10.2-4 20.8 4.9 18.5 15.7l-45.8 218.8c-2.1 10.3-14.2 14.9-22.6 8.7l-69.1-50.7 -35.2 36c-6.2 6.3-16.9 3.7-19.5-4.7l-25.4-80.7 -68.1-20.1c-8.9-2.6-9.5-15.1-0.8-18.5L383.7 133.5zM350.1 182.1c3-2.6-0.5-7.3-3.9-5.2l-147 91.2c-2.6 1.6-3.8 4.8-2.9 7.7l20 88c0.4 1.3 2.3 1.2 2.5-0.2l4.5-67.1c0.2-1.7 1-3.2 2.2-4.3L350.1 182.1z" class="a"/><path d="M346.3 176.9c3.4-2.1 6.8 2.6 3.9 5.2l-124.5 110.1c-1.2 1.1-2 2.6-2.2 4.3l-4.5 67.1c-0.2 1.4-2.1 1.6-2.5 0.2l-20-88c-0.9-2.9 0.3-6.1 2.9-7.7L346.3 176.9z" fill="#9EC2E5"/><path d="M217.2 364.7c-3.2-1.2-6-3.7-7.2-7.5l-25.4-80.7 -68.1-20.1c-8.9-2.6-9.5-15.1-0.8-18.5L383.7 133.5c6.6-2.6 13.3 0.2 16.7 5.4 -0.6-0.9-1.4-1.8-2.2-2.6L216.3 284.8v6.5l-1-0.7 1 40.9v32.8c0.3 0.1 0.5 0.2 0.8 0.3V364.7L217.2 364.7z" class="a"/><path d="M402.5 145.5c0.1 1.2 0 2.4-0.3 3.7l-45.8 218.8c-2.1 10.3-14.2 14.9-22.6 8.7l-69.1-50.7 -48.4-34.6v-6.5l181.8-148.4c0.8 0.8 1.6 1.7 2.2 2.6 0.1 0.2 0.2 0.4 0.4 0.6 0.1 0.2 0.2 0.4 0.3 0.6 0.1 0.2 0.2 0.4 0.3 0.6 0.1 0.2 0.2 0.4 0.3 0.7 0.1 0.2 0.2 0.4 0.2 0.6 0.2 0.7 0.4 1.4 0.5 2.1C402.4 144.6 402.5 145 402.5 145.5z" class="b"/><path d="M264.7 325.9l-35.2 36c-0.3 0.3-0.6 0.6-0.9 0.8 -0.3 0.3-0.6 0.5-0.9 0.7 0 0 0 0 0 0 -0.7 0.4-1.3 0.8-2 1.1 -0.4 0.1-0.7 0.3-1.1 0.4 -1.5 0.4-3 0.6-4.6 0.4 -0.4 0-0.8-0.1-1.2-0.2 -0.1 0-0.1 0-0.2 0 -0.4-0.1-0.8-0.2-1.1-0.3 -0.1 0-0.2-0.1-0.4-0.1l-0.8-33.1v-40.2L264.7 325.9z" class="b"/><path d="M228.6 362.7c-0.3 0.3-0.6 0.5-0.9 0.7v0C228 363.2 228.3 363 228.6 362.7z" class="c"/><path d="M227.7 363.4v0c0 0 0 0 0 0C227.6 363.5 227.6 363.5 227.7 363.4z" class="c"/><path d="M225.6 364.5c0.7-0.3 1.4-0.7 2-1.1C227 363.9 226.3 364.2 225.6 364.5z" class="c"/><path d="M220 365.3c1.5 0.2 3.1 0 4.6-0.4 -1.1 0.3-2.2 0.5-3.3 0.5 -0.3 0-0.7 0-1-0.1C220.1 365.4 220.1 365.4 220 365.3z" class="c"/><path d="M221.2 365.4c-0.3 0-0.7 0-1-0.1C220.5 365.4 220.9 365.4 221.2 365.4z" class="a"/><path d="M220 365.3c0.1 0 0.1 0 0.2 0 -0.4 0-0.7-0.1-1-0.1C219.4 365.3 219.7 365.3 220 365.3z" class="a"/><path d="M220 365.3c-0.3 0-0.6-0.1-0.8-0.1 -0.1 0-0.2 0-0.3-0.1C219.2 365.2 219.6 365.3 220 365.3z" class="c"/><path d="M217.5 364.8c0.4 0.1 0.8 0.2 1.1 0.3 -0.2 0-0.3-0.1-0.5-0.1 -0.1 0-0.1 0-0.2-0.1C217.8 364.9 217.7 364.9 217.5 364.8z" class="c"/><path d="M218.2 365c0.2 0 0.3 0.1 0.5 0.1C218.5 365.1 218.3 365.1 218.2 365z" class="a"/><path d="M217.5 364.8c0.2 0.1 0.3 0.1 0.5 0.2 -0.3-0.1-0.5-0.1-0.8-0.2C217.3 364.7 217.4 364.8 217.5 364.8z" class="a"/><path d="M217.5 364.8c-0.1 0-0.2-0.1-0.3-0.1 0 0-0.1 0-0.1 0v0C217.3 364.7 217.4 364.7 217.5 364.8z" class="c"/><path d="M216.3 331.5l0.8 33.1c-0.3-0.1-0.6-0.2-0.8-0.3V331.5z" class="b"/><polygon points="216.3 291.3 216.3 331.5 215.3 290.6 " class="c"/><path d="M350.1 182.1l-124.5 110.1c-1.2 1.1-2 2.6-2.2 4.3l-4.5 67.1c-0.2 1.4-2.1 1.6-2.5 0.2l-20-88c-0.9-2.9 0.3-6.1 2.9-7.7l147-91.2C349.6 174.8 353.1 179.4 350.1 182.1z" fill="#ADBCC9"/></svg>