<svg xmlns="http://www.w3.org/2000/svg" viewBox="0 0 512 512"><style>.a{fill:#FFF;}.b{fill:#D1D1D1;}</style><circle cx="256" cy="256" r="256" fill="#6F3FAA"/><path d="M367.1 140.4c-62.3-15-124.7-32.7-188.6-10.3 -41.4 15.5-41.4 60.3-39.6 98.3 0 10.3-12.1 24.1-6.9 36.2 10.3 34.5 19 69 55.2 86.2 5.2 3.4 0 10.3 3.4 15.5 -1.7 0-5.2 1.7-5.2 3.4 0 8.3 3.7 20.9 1.2 29.1L296.6 508.8c113.1-18 201.5-110.1 213.9-224.9L367.1 140.4z" fill="#512D84"/><path d="M391.4 179.9l-0.1-0.3c-6.8-27.7-37.7-57.3-66-63.5l-0.3-0.1c-45.8-8.7-92.3-8.7-138 0l-0.3 0.1c-28.3 6.2-59.1 35.8-66 63.5l-0.1 0.3c-8.5 38.6-8.5 77.8 0 116.4l0.1 0.3c6.6 26.5 35.1 54.8 62.4 62.6v30.9c0 11.2 13.6 16.7 21.4 8.6l31.3-32.5c6.8 0.4 13.6 0.6 20.4 0.6 23.1 0 46.1-2.2 69-6.5l0.3-0.1c28.3-6.2 59.2-35.8 66-63.5l0.1-0.3C399.9 257.7 399.9 218.5 391.4 179.9zM366.7 290.7c-4.6 18-28 40.5-46.6 44.6 -24.4 4.6-48.9 6.6-73.4 5.9 -0.5 0-1 0.2-1.3 0.5 -3.5 3.6-22.8 23.4-22.8 23.4l-24.3 24.9c-1.8 1.9-4.9 0.6-4.9-2v-51.1c0-0.8-0.6-1.6-1.4-1.7 0 0 0 0 0 0 -18.6-4.1-42-26.6-46.6-44.6 -7.6-34.9-7.6-70.3 0-105.2 4.6-18 28-40.5 46.6-44.6 42.5-8.1 85.7-8.1 128.2 0 18.6 4.1 42 26.6 46.6 44.6C374.3 220.4 374.3 255.8 366.7 290.7z" class="a"/><path d="M296.5 314.3c-2.9-0.9-5.6-1.5-8.1-2.5 -26.2-10.9-50.4-24.9-69.5-46.4 -10.9-12.2-19.4-26.1-26.6-40.7 -3.4-6.9-6.3-14.1-9.2-21.3 -2.7-6.5 1.3-13.3 5.4-18.2 3.9-4.6 8.9-8.1 14.3-10.8 4.2-2 8.4-0.9 11.5 2.7 6.7 7.8 12.8 15.9 17.8 24.9 3.1 5.5 2.2 12.3-3.3 16 -1.3 0.9-2.6 2-3.8 3 -1.1 0.9-2.1 1.8-2.9 3 -1.4 2.2-1.4 4.9-0.6 7.3 6.8 18.8 18.3 33.4 37.2 41.2 3 1.3 6.1 2.7 9.5 2.3 5.8-0.7 7.7-7.1 11.8-10.4 4-3.3 9.1-3.3 13.4-0.6 4.3 2.7 8.5 5.6 12.6 8.6 4.1 2.9 8.1 5.7 11.9 9 3.6 3.2 4.9 7.3 2.8 11.7 -3.7 7.9-9.1 14.5-16.9 18.7C301.6 313.2 299 313.6 296.5 314.3 293.6 313.5 299 313.6 296.5 314.3z" class="a"/><path d="M256.1 165.4c34.3 1 62.5 23.7 68.5 57.7 1 5.8 1.4 11.7 1.9 17.6 0.2 2.5-1.2 4.8-3.9 4.8 -2.7 0-4-2.3-4.2-4.7 -0.4-4.9-0.6-9.8-1.3-14.6 -3.6-25.6-23.9-46.7-49.4-51.2 -3.8-0.7-7.7-0.9-11.6-1.3 -2.5-0.3-5.7-0.4-6.2-3.5 -0.5-2.6 1.7-4.6 4.1-4.7C254.7 165.4 255.4 165.4 256.1 165.4 290.4 166.4 255.4 165.4 256.1 165.4z" class="a"/><path d="M308.2 233c-0.1 0.4-0.1 1.4-0.3 2.4 -0.9 3.4-6.1 3.9-7.3 0.4 -0.4-1-0.4-2.2-0.4-3.3 0-7.3-1.6-14.5-5.3-20.8 -3.8-6.5-9.5-12-16.3-15.3 -4.1-2-8.5-3.2-13-4 -2-0.3-3.9-0.5-5.9-0.8 -2.4-0.3-3.7-1.8-3.5-4.2 0.1-2.2 1.7-3.8 4.1-3.6 7.9 0.4 15.5 2.2 22.5 5.9 14.2 7.5 22.4 19.4 24.7 35.3 0.1 0.7 0.3 1.4 0.3 2.2C308 228.9 308.1 230.7 308.2 233 308.2 233.4 308.1 230.7 308.2 233z" class="a"/><path d="M286.9 232.2c-2.9 0.1-4.4-1.5-4.7-4.2 -0.2-1.8-0.4-3.7-0.8-5.5 -0.9-3.5-2.7-6.8-5.7-8.9 -1.4-1-3-1.8-4.6-2.2 -2.1-0.6-4.3-0.4-6.4-1 -2.3-0.6-3.5-2.4-3.2-4.5 0.3-1.9 2.2-3.5 4.3-3.3 13.3 1 22.8 7.8 24.2 23.5 0.1 1.1 0.2 2.3 0 3.3C289.5 231.2 288.2 232.1 286.9 232.2 284 232.2 288.2 232.1 286.9 232.2z" class="a"/><path d="M391.4 179.9l-0.1-0.3c-3.8-15.5-15.2-31.6-29.5-43.9l-19.3 17.1c11.5 9.1 21.3 21.8 24.1 32.8 7.6 34.9 7.6 70.3 0 105.2 -4.6 18-28 40.5-46.6 44.6 -24.4 4.6-48.9 6.6-73.4 5.9 -0.5 0-1 0.2-1.3 0.5 -3.5 3.6-22.8 23.4-22.8 23.4l-24.3 24.9c-1.8 1.9-4.9 0.6-4.9-2v-51.1c0-0.8-0.6-1.6-1.4-1.7 0 0 0 0 0 0 -10.6-2.4-22.7-10.6-32-20.6l-19 16.9c11.9 12.9 27.2 23.4 42.2 27.7v30.9c0 11.2 13.6 16.7 21.4 8.6l31.3-32.5c6.8 0.4 13.6 0.6 20.4 0.6 23.1 0 46.1-2.2 69-6.5l0.3-0.1c28.3-6.2 59.2-35.8 66-63.5l0.1-0.3C399.9 257.7 399.9 218.5 391.4 179.9z" class="b"/><path d="M296.5 314.3C299 313.6 293.6 313.5 296.5 314.3L296.5 314.3z" class="a"/><path d="M317.9 281.7c-3.8-3.3-7.8-6.1-11.9-9 -4.1-3-8.3-5.9-12.6-8.6 -4.3-2.7-9.4-2.7-13.4 0.6 -4.1 3.3-6 9.7-11.8 10.4 -3.5 0.4-6.5-1.1-9.5-2.3 -11.6-4.8-20.4-12.2-27.1-21.6l-14.2 12.6c0.5 0.6 0.9 1.1 1.4 1.7 19.1 21.5 43.3 35.6 69.5 46.4 2.5 1.1 5.3 1.6 8.1 2.5 -2.9-0.9 2.5-0.8 0 0 2.5-0.8 5.1-1.1 7.3-2.3 7.8-4.2 13.2-10.8 16.9-18.7C322.8 289 321.5 284.8 317.9 281.7z" class="b"/><path d="M256.2 165.4c0 0-0.1 0-0.1 0C256 165.4 256.1 165.4 256.2 165.4z" class="a"/><path d="M256.1 165.4c0 0 0.1 0 0.1 0C258.1 165.5 289 166.4 256.1 165.4z" class="a"/><path d="M305.3 185.8l-6 5.4c9.5 9.2 16 21.5 17.9 34.9 0.7 4.8 0.9 9.7 1.3 14.6 0.2 2.5 1.4 4.8 4.2 4.7 2.7 0 4.1-2.4 3.9-4.8 -0.5-5.9-0.8-11.8-1.9-17.6C322 208.2 315.1 195.5 305.3 185.8z" class="b"/><path d="M307.5 224.9c-1.7-11.6-6.5-21-14.5-28.2l-6 5.3c3.1 2.8 5.8 6 7.9 9.6 3.7 6.3 5.2 13.6 5.3 20.8 0 1.1 0.1 2.3 0.4 3.3 1.2 3.5 6.4 3 7.3-0.4 0.3-0.9 0.3-2 0.3-2.4 -0.1 0.4-0.1-2.4 0 0 -0.1-2.4-0.2-4.1-0.4-5.9C307.8 226.4 307.6 225.7 307.5 224.9z" class="b"/><path d="M308.2 233C308.1 230.7 308.2 233.4 308.2 233L308.2 233z" class="a"/><path d="M286.9 232.2c0 0 0.1 0 0.1 0 -0.1 0-0.3 0-0.5 0C286.6 232.2 286.7 232.2 286.9 232.2z" class="a"/><path d="M286.9 232.2c-0.1 0-0.2 0-0.4 0C285.9 232.2 285.2 232.2 286.9 232.2z" class="a"/><path d="M287 232.2c0 0-0.1 0-0.1 0C287.2 232.2 287.2 232.2 287 232.2z" class="a"/><path d="M280.8 207.5l-6.1 5.4c0.3 0.2 0.7 0.4 1 0.7 3 2.2 4.8 5.4 5.7 8.9 0.4 1.8 0.6 3.6 0.8 5.5 0.3 2.5 1.7 4.1 4.3 4.1 0.2 0 0.4 0 0.5 0 1.3-0.1 2.5-1 2.9-2.8 0.2-1.1 0.1-2.2 0-3.3C289.2 217.3 285.9 211.3 280.8 207.5z" class="b"/></svg>